<?xml version="1.0" encoding="iso-8859-1"?>
<!-- Generator: Adobe Illustrator 19.0.0, SVG Export Plug-In . SVG Version: 6.00 Build 0)  -->
<svg version="1.1" id="Layer_1" xmlns="http://www.w3.org/2000/svg" xmlns:xlink="http://www.w3.org/1999/xlink" x="0px" y="0px"
	 viewBox="0 0 512 512" style="enable-background:new 0 0 512 512;" xml:space="preserve">
<g transform="translate(1 1)">
	<path style="fill:#FFE100;" d="M502.467,255c0,136.533-110.933,247.467-247.467,247.467S7.533,391.533,7.533,255
		S118.467,7.533,255,7.533S502.467,118.467,502.467,255"/>
	<path style="fill:#FFA800;" d="M255,7.533c-4.267,0-8.533,0-12.8,0C372.76,14.36,476.867,122.733,476.867,255
		S372.76,495.64,242.2,502.467c4.267,0,8.533,0,12.8,0c136.533,0,247.467-110.933,247.467-247.467S391.533,7.533,255,7.533"/>
	<path style="fill:#FFFFFF;" d="M255,7.533c4.267,0,8.533,0,12.8,0C137.24,14.36,33.133,122.733,33.133,255
		S137.24,495.64,267.8,502.467c-4.267,0-8.533,0-12.8,0C118.467,502.467,7.533,391.533,7.533,255S118.467,7.533,255,7.533"/>
	<path style="fill:#63D3FD;" d="M417.133,186.733c0,37.547-30.72,68.267-68.267,68.267S280.6,224.28,280.6,186.733
		s30.72-68.267,68.267-68.267S417.133,149.187,417.133,186.733"/>
	<path style="fill:#FFE100;" d="M374.467,186.733c0,14.507-11.093,25.6-25.6,25.6c-14.507,0-25.6-11.093-25.6-25.6
		s11.093-25.6,25.6-25.6C363.373,161.133,374.467,172.227,374.467,186.733"/>
	<path style="fill:#63D3FD;" d="M229.4,186.733c0,37.547-30.72,68.267-68.267,68.267s-68.267-30.72-68.267-68.267
		s30.72-68.267,68.267-68.267S229.4,149.187,229.4,186.733"/>
	<path style="fill:#FFE100;" d="M186.733,186.733c0,14.507-11.093,25.6-25.6,25.6s-25.6-11.093-25.6-25.6s11.093-25.6,25.6-25.6
		S186.733,172.227,186.733,186.733"/>
	<path d="M255,511C114.2,511-1,395.8-1,255S114.2-1,255-1s256,115.2,256,256S395.8,511,255,511z M255,16.067
		C123.587,16.067,16.067,123.587,16.067,255S123.587,493.933,255,493.933S493.933,386.413,493.933,255S386.413,16.067,255,16.067z"
		/>
	<path d="M348.867,220.867c-18.773,0-34.133-15.36-34.133-34.133s15.36-34.133,34.133-34.133S383,167.961,383,186.734
		S367.64,220.867,348.867,220.867z M348.867,169.667c-9.387,0-17.067,7.68-17.067,17.067c0,9.387,7.68,17.067,17.067,17.067
		s17.067-7.68,17.067-17.067C365.933,177.347,358.253,169.667,348.867,169.667z"/>
	<path d="M161.133,220.867c-18.773,0-34.133-15.36-34.133-34.133s15.36-34.133,34.133-34.133s34.133,15.36,34.133,34.133
		S179.907,220.867,161.133,220.867z M161.133,169.667c-9.387,0-17.067,7.68-17.067,17.067c0,9.387,7.68,17.067,17.067,17.067
		s17.067-7.68,17.067-17.067S170.52,169.667,161.133,169.667z"/>
	<path d="M161.133,263.533c-42.667,0-76.8-34.133-76.8-76.8s34.133-76.8,76.8-76.8s76.8,34.133,76.8,76.8
		S203.8,263.533,161.133,263.533z M161.133,127c-33.28,0-59.733,26.453-59.733,59.733s26.453,59.733,59.733,59.733
		s59.733-26.453,59.733-59.733S194.413,127,161.133,127z"/>
	<path d="M348.867,263.533c-42.667,0-76.8-34.133-76.8-76.8s34.133-76.8,76.8-76.8s76.8,34.133,76.8,76.8
		S391.533,263.533,348.867,263.533z M348.867,127c-33.28,0-59.733,26.453-59.733,59.733s26.453,59.733,59.733,59.733
		s59.733-26.453,59.733-59.733S382.147,127,348.867,127z"/>
	<path d="M280.6,195.267h-51.2c-5.12,0-8.533-3.413-8.533-8.533c0-5.12,3.413-8.533,8.533-8.533h51.2
		c5.12,0,8.533,3.413,8.533,8.533C289.133,191.853,285.72,195.267,280.6,195.267z"/>
	<path d="M434.2,195.267h-17.067c-5.12,0-8.533-3.413-8.533-8.533c0-5.12,3.413-8.533,8.533-8.533H434.2
		c5.12,0,8.533,3.413,8.533,8.533C442.733,191.853,439.32,195.267,434.2,195.267z"/>
	<path d="M92.867,195.267H75.8c-5.12,0-8.533-3.413-8.533-8.533c0-5.12,3.413-8.533,8.533-8.533h17.067
		c5.12,0,8.533,3.413,8.533,8.533C101.4,191.853,97.987,195.267,92.867,195.267z"/>
	<path d="M255,400.067c-52.907,0-104.96-27.307-134.827-71.68c-2.56-4.267-1.707-9.387,2.56-11.947s9.387-1.707,11.947,2.56
		c26.453,39.253,72.533,64,120.32,64s93.867-24.747,121.173-64.853c2.56-4.267,7.68-5.12,11.947-2.56s5.12,7.68,2.56,11.947
		C359.96,372.76,307.907,400.067,255,400.067z"/>
</g>
<g>
</g>
<g>
</g>
<g>
</g>
<g>
</g>
<g>
</g>
<g>
</g>
<g>
</g>
<g>
</g>
<g>
</g>
<g>
</g>
<g>
</g>
<g>
</g>
<g>
</g>
<g>
</g>
<g>
</g>
</svg>
